Coordinates
version=1
nRows=33
nColumns=30
inDegrees=yes

Units are S.I. units (second, meters, Newtons, ...)
Angles are in degrees.

endheader
time	floatyaw	floatroll	floatpitch	floatx	floaty	floatz	pro_sup_l	deviation_l	flexion_l	cmc_flexion_l	cmc_abduction_l	mp_flexion_l	ip_flexion_l	2mcp_flexion_l	2mcp_abduction_l	2pm_flexion_l	2md_flexion_l	3mcp_flexion_l	3mcp_abduction_l	3pm_flexion_l	3md_flexion_l	4mcp_flexion_l	4mcp_abduction_l	4pm_flexion_l	4md_flexion_l	5mcp_flexion_l	5mcp_abduction_l	5pm_flexion_l	5md_flexion_l
-0.495000	-160.147433	-5.066637	-73.570646	0.078229	-0.180884	-0.014616	101.032977	4.406502	-0.210701	13.381103	8.563702	-26.024262	-41.776860	31.974740	6.597808	42.619620	28.905246	24.805773	4.169168	44.695375	29.530538	13.640977	-4.301825	52.761420	36.332518	1.442244	-7.581128	62.780556	43.255709
-0.485000	-160.147433	-5.066637	-73.570646	0.077963	-0.180596	-0.014890	101.087947	4.561361	-0.285248	13.354343	8.568819	-26.004406	-41.729181	32.002655	6.594761	42.589477	28.874005	24.879052	4.164312	44.636910	29.485841	13.749004	-4.286737	52.666204	36.297244	1.545661	-7.569654	62.730376	43.217792
-0.475000	-160.147433	-5.066637	-73.570646	0.077639	-0.180275	-0.015187	101.102411	4.733317	-0.401936	13.308151	8.600271	-26.000732	-41.674114	32.019291	6.591851	42.544142	28.839122	24.934490	4.163560	44.560119	29.437829	13.847039	-4.269448	52.547667	36.263273	1.643439	-7.576533	62.661250	43.184176
-0.465000	-160.147433	-5.066637	-73.570646	0.077258	-0.179915	-0.015500	101.088098	4.911718	-0.557717	13.243326	8.674356	-26.017937	-41.642622	32.015210	6.589759	42.491983	28.808937	24.961031	4.166865	44.482130	29.398907	13.925219	-4.253332	52.420610	36.238380	1.726990	-7.604293	62.584103	43.164390
-0.455000	-160.147433	-5.066637	-73.570646	0.076822	-0.179515	-0.015822	101.064298	5.089224	-0.747670	13.161061	8.807719	-26.048544	-41.660374	31.984828	6.587947	42.446198	28.792064	24.954358	4.173168	44.421180	29.379563	13.975858	-4.241041	52.306039	36.230758	1.790950	-7.647823	62.510766	43.164572
-0.445000	-160.147433	-5.066637	-73.570646	0.076331	-0.179076	-0.016151	101.053319	5.262748	-0.967251	13.064827	9.014813	-26.071025	-41.729812	31.927104	6.584958	42.422558	28.795463	24.916194	4.180565	44.392811	29.385813	13.994282	-4.234266	52.227117	36.246411	1.835521	-7.694488	62.450963	43.184598
-0.435000	-160.147433	-5.066637	-73.570646	0.075785	-0.178605	-0.016486	101.075805	5.431978	-1.212900	12.964108	9.301943	-26.055712	-41.820604	31.845470	6.579181	42.433125	28.821258	24.851102	4.186637	44.406216	29.417722	13.979351	-4.233616	52.200944	36.285369	1.866476	-7.727884	62.410373	43.217108
-0.425000	-160.147433	-5.066637	-73.570646	0.075185	-0.178119	-0.016831	101.147517	5.596888	-1.481107	12.877608	9.659853	-25.977780	-41.877351	31.747270	6.569519	42.477875	28.863431	24.763184	4.188792	44.460400	29.468842	13.933708	-4.238421	52.228793	36.338742	1.891865	-7.733580	62.390078	43.249207
-0.415000	-160.147433	-5.066637	-73.570646	0.074527	-0.177636	-0.017190	101.278187	5.755835	-1.766752	12.832827	10.059902	-25.831262	-41.845298	31.641370	6.555623	42.539908	28.907353	24.654387	4.184619	44.541685	29.526997	13.863051	-4.246595	52.290902	36.389141	1.915577	-7.704185	62.387355	43.266438
-0.405000	-160.147433	-5.066637	-73.570646	0.073810	-0.177176	-0.017568	101.471929	5.904907	-2.061260	12.859711	10.458574	-25.635491	-41.702749	31.532492	6.537766	42.590103	28.934705	24.524497	4.172460	44.625510	29.577097	13.774029	-4.254914	52.351292	36.415674	1.930293	-7.641893	62.397209	43.257510
-0.395000	-160.147433	-5.066637	-73.570646	0.073034	-0.176755	-0.017968	101.728177	6.038235	-2.350869	12.978440	10.810434	-25.428956	-41.480800	31.413544	6.516724	42.602184	28.933283	24.372221	4.152482	44.684172	29.605908	13.671951	-4.260000	52.372962	36.402303	1.914490	-7.558367	62.413929	43.218241
-0.385000	-160.147433	-5.066637	-73.570646	0.072207	-0.176387	-0.018388	102.042893	6.148918	-2.615696	13.185590	11.083880	-25.253702	-41.255290	31.260948	6.493956	42.571910	28.907264	24.197145	4.128057	44.698914	29.607473	13.560415	-4.259963	52.337422	36.346399	1.837533	-7.472560	62.433062	43.154281
-0.375000	-160.147433	-5.066637	-73.570646	0.071349	-0.176079	-0.018830	102.410648	6.230642	-2.830836	13.446311	11.271967	-25.139514	-41.112873	31.039072	6.472208	42.529478	28.881801	24.002903	4.106548	44.671705	29.587137	13.443792	-4.256078	52.258973	36.263571	1.673108	-7.407151	62.455216	43.082821
-0.365000	-160.147433	-5.066637	-73.570646	0.070485	-0.175833	-0.019298	102.827509	6.279989	-2.970490	13.699514	11.393141	-25.096672	-41.111363	30.716607	6.456425	42.535480	28.897624	23.802042	4.098361	44.630257	29.561978	13.331271	-4.253498	52.185123	36.185691	1.416341	-7.384083	62.492054	43.032847
-0.355000	-160.147433	-5.066637	-73.570646	0.069640	-0.175632	-0.019804	103.292749	6.298954	-3.014549	13.876628	11.481812	-25.119699	-41.258355	30.290577	6.454390	42.658368	28.996327	23.621847	4.113747	44.620947	29.556168	13.239700	-4.260152	52.180185	36.151513	1.096693	-7.419617	62.571343	43.042130
-0.345000	-160.147433	-5.066637	-73.570646	0.068821	-0.175445	-0.020373	103.806683	6.297040	-2.955141	13.926156	11.573814	-25.196914	-41.517633	29.805783	6.476175	42.942212	29.202760	23.507347	4.158316	44.690005	29.592306	13.192548	-4.283863	52.297895	36.192928	0.779192	-7.519449	62.734584	43.148969
-0.335000	-160.147433	-5.066637	-73.570646	0.068025	-0.175227	-0.021034	104.363936	6.292723	-2.799818	13.831975	11.694038	-25.317195	-41.833171	29.354761	6.531870	43.381190	29.513644	23.515175	4.229547	44.862014	29.682946	13.213853	-4.328662	52.556443	36.322737	0.551020	-7.675473	63.021833	43.378878
-0.325000	-160.147433	-5.066637	-73.570646	0.067234	-0.174920	-0.021823	104.945182	6.314221	-2.569633	13.616727	11.850651	-25.469333	-42.152456	29.051136	6.628123	43.915554	29.898470	23.695066	4.316532	45.128746	29.827009	13.319008	-4.391723	52.929443	36.529381	0.496592	-7.866337	63.446390	43.730553
-0.315000	-160.147433	-5.066637	-73.570646	0.066420	-0.174467	-0.022775	105.512914	6.398861	-2.294260	13.329650	12.035419	-25.637398	-42.437789	28.985173	6.764716	44.452676	30.311694	24.065590	4.403535	45.454873	30.012099	13.507855	-4.462391	53.357052	36.780483	0.669113	-8.062593	63.973664	44.168925
-0.305000	-160.147433	-5.066637	-73.570646	0.065549	-0.173816	-0.023913	106.015485	6.589741	-2.009090	13.025349	12.227649	-25.799678	-42.666163	29.183401	6.932460	44.902799	30.709191	24.598628	4.475663	45.794912	30.219411	13.765688	-4.524303	53.769332	37.033252	1.069179	-8.234339	64.522522	44.631810
-0.295000	-160.147433	-5.066637	-73.570646	0.064572	-0.172935	-0.025249	106.398447	6.928732	-1.757288	12.742729	12.400998	-25.934751	-42.824660	29.593706	7.113429	45.211182	31.060504	25.223306	4.523793	46.109318	30.427618	14.072517	-4.560582	54.108412	37.247567	1.640449	-8.357831	64.994457	45.048868
-0.285000	-160.147433	-5.066637	-73.570646	0.063422	-0.171802	-0.026777	106.617396	7.446896	-1.593915	12.491953	12.533944	-26.030510	-42.906690	30.103564	7.284129	45.371158	31.351709	25.847476	4.546443	46.371649	30.615029	14.414899	-4.560221	54.339208	37.396363	2.287457	-8.419008	65.313316	45.362322
-0.275000	-160.147433	-5.066637	-73.570646	0.062013	-0.170395	-0.028482	106.646633	8.156116	-1.585438	12.253212	12.623448	-26.088130	-42.909814	30.581874	7.421043	45.414161	31.579421	26.385591	4.548049	46.566531	30.761077	14.794005	-4.522464	54.445702	37.468450	2.911085	-8.414502	65.447898	45.537607
-0.265000	-160.147433	-5.066637	-73.570646	0.060236	-0.168668	-0.030362	106.482483	9.046891	-1.800968	11.986493	12.697907	-26.116886	-42.833976	30.924648	7.506696	45.385185	31.741528	26.781711	4.535212	46.682708	30.847394	15.227286	-4.456743	54.417052	37.462880	3.447116	-8.351877	65.403779	45.561031
-0.255000	-160.147433	-5.066637	-73.570646	0.057968	-0.166535	-0.032435	106.144031	10.094537	-2.298534	11.648625	12.822519	-26.123450	-42.680610	31.085491	7.534039	45.318130	31.831602	27.020999	4.513422	46.706775	30.858497	15.743788	-4.378513	54.233902	37.380175	3.889533	-8.249838	65.196345	45.432033
-0.245000	-160.147433	-5.066637	-73.570646	0.055096	-0.163887	-0.034743	105.673508	11.270725	-3.114249	11.213115	13.090595	-26.103893	-42.454671	31.081166	7.507979	45.223058	31.840707	27.127776	4.485929	46.623486	30.783674	16.373667	-4.303687	53.867403	37.218621	4.287298	-8.137220	64.830934	45.160060
-0.235000	-160.147433	-5.066637	-73.570646	0.051543	-0.160628	-0.037336	105.134964	12.554039	-4.260601	10.687804	13.599363	-26.043928	-42.169437	30.974713	7.444008	45.089736	31.764987	27.152810	4.454467	46.426040	30.622283	17.133587	-4.244380	53.297448	36.980062	4.717867	-8.048582	64.308123	44.769572
-0.225000	-160.147433	-5.066637	-73.570646	0.047298	-0.156730	-0.040236	104.607550	13.934773	-5.733808	10.123940	14.417244	-25.925482	-41.849032	30.847164	7.364059	44.903361	31.613692	27.155437	4.420335	46.132706	30.391474	18.012567	-4.206774	52.542810	36.681576	5.252987	-8.015364	63.650183	44.307863
-0.215000	-160.147433	-5.066637	-73.570646	0.042414	-0.152264	-0.043417	104.171547	15.412989	-7.523261	9.609960	15.557068	-25.732448	-41.521972	30.769458	7.289773	44.662704	31.412036	27.184932	4.384637	45.798616	30.130808	18.964335	-4.190498	51.683122	36.363451	5.933057	-8.053890	62.924879	43.845386
-0.205000	-160.147433	-5.066637	-73.570646	0.036995	-0.147394	-0.046800	103.891214	16.990990	-9.613024	9.247725	16.970757	-25.450563	-41.205571	30.779325	7.234200	44.390281	31.196085	27.261365	4.347553	45.510133	29.897123	19.908795	-4.189111	50.852317	36.084453	6.755642	-8.154043	62.239880	43.460239
-0.195000	-160.147433	-5.066637	-73.570646	0.031153	-0.142341	-0.050270	103.804172	18.661750	-11.969384	9.118540	18.572220	-25.063557	-40.891856	30.860449	7.194295	44.128203	31.000986	27.355528	4.307079	45.356219	29.746960	20.738695	-4.191976	50.197519	35.902149	7.671151	-8.274272	61.700069	43.207840
-0.185000	-160.147433	-5.066637	-73.570646	0.024974	-0.137335	-0.053715	103.926534	20.396510	-14.518700	9.255881	20.279249	-24.552235	-40.549999	30.922311	7.147567	43.919810	30.847581	27.374123	4.257877	45.383519	29.710739	21.325811	-4.187369	49.816909	35.844625	8.576224	-8.348581	61.349868	43.089292
-0.175000	-160.147433	-5.066637	-73.570646	0.018490	-0.132588	-0.057054	104.274739	22.137712	-17.130044	9.642431	22.050736	-23.900839	-40.151441	30.790483	7.055944	43.784773	30.734521	27.165003	4.191262	45.554194	29.769258	21.528815	-4.165613	49.703907	35.886305	9.306291	-8.307142	61.141283	43.039104
